<svg xmlns="http://www.w3.org/2000/svg" width="597.52" height="366.723" viewBox="0 0 597.52 366.723">
  <g id="Group_553" data-name="Group 553" transform="translate(-1005.809 -300.615)">
    <path id="Path_1661" data-name="Path 1661" d="M1426.584,17093.789c-51.558-34.479-108.952-87.365-29.55-100.9s112.948-46.354,188.173-43.975,120.624-3.494,259.876,26.826,133.706,60.764,54.684,82.117-53.5,64.254-137.292,69.578S1478.142,17128.273,1426.584,17093.789Z" transform="translate(-352 -16461.971)" fill="#d9e5d8" opacity="0.398"/>
    <g id="Group_517" data-name="Group 517" transform="translate(382 -1156)">
      <g id="Group_438" data-name="Group 438" transform="translate(705.719 1545.222) rotate(-22)">
        <circle id="Ellipse_136" data-name="Ellipse 136" cx="115.927" cy="115.927" r="115.927" transform="translate(1.692 3.012)" fill="#d85044"/>
        <g id="Group_437" data-name="Group 437" transform="translate(0 0)">
          <g id="Group_436" data-name="Group 436" transform="translate(0 0)">
            <path id="Path_1582" data-name="Path 1582" d="M236.535,118.267A118.267,118.267,0,1,1,118.267,0,118.267,118.267,0,0,1,236.535,118.267ZM86.074,229.89l2.831-.2c1.262-.072,2.431-.034,2.467-.034a2.315,2.315,0,0,0,2.472-2.3,2.386,2.386,0,0,0-2.3-2.474s-1.4-.048-2.954.041l-2.855.205A2.39,2.39,0,0,0,85.9,229.9C85.961,229.9,86.019,229.895,86.074,229.89ZM74.1,221.713l3.3-.456c1.554-.222,3-.357,3.017-.36a2.389,2.389,0,1,0-.447-4.757s-1.559.147-3.234.384l-3.292.456a2.389,2.389,0,0,0,.326,4.755A1.909,1.909,0,0,0,74.1,221.713Zm-8.829-1.789a1.418,1.418,0,0,0-.024-.268,26.091,26.091,0,0,1-.227-2.732c-.065-1.5-.031-2.841-.031-2.86.024-1.108-.854-1.665-1.96-1.665h-.046c-1.089,0-1.982.485-2.006,1.579,0,0-.036,1.291.031,2.9.084,3.017.138,5.011,2.259,5.011A1.965,1.965,0,0,0,65.269,219.924Zm-1.262-8.312,6.6-.982a2.145,2.145,0,0,0-.632-4.243l-6.594.982a2.145,2.145,0,0,0,.311,4.267A2.425,2.425,0,0,0,64.007,211.612Zm-7.989.572c0-.022.215-1.817.543-3.608.352-1.837.845-3.681.852-3.7a2.2,2.2,0,0,0-1.755-2.655,2.4,2.4,0,0,0-2.889,1.61s-.531,2-.915,4c-.357,1.95-.587,3.886-.587,3.886a2.247,2.247,0,0,0,2.119,2.418,2.347,2.347,0,0,0,.258.014A2.322,2.322,0,0,0,56.018,212.184ZM53.136,201.5l8.284-.958a2.39,2.39,0,1,0-.548-4.748l-8.284.958a2.39,2.39,0,0,0,.27,4.764A2.168,2.168,0,0,0,53.136,201.5Zm-8.385-10.82,4.678-.644a18.841,18.841,0,0,0,4.567-.77,2.362,2.362,0,1,0-.338-4.711s-2.151.22-4.335.275l-4.666.229a2.654,2.654,0,0,0-2.344,2.715c.027,1.306,1.093,2.906,2.389,2.906ZM32.422,188.1c.012-.019,1.175-1.974,2.445-3.816,1.253-1.844,2.641-3.618,2.655-3.635a2.182,2.182,0,0,0-.391-3.082,2.227,2.227,0,0,0-3.111.386c-.06.075-1.494,1.907-2.824,3.864-1.347,1.957-2.546,3.973-2.6,4.057a2.2,2.2,0,0,0,1.907,3.311A2.229,2.229,0,0,0,32.422,188.1Zm12.433,15.751c0-.022.343-2.254.818-4.415.459-2.16,1.067-4.3,1.074-4.323a2.233,2.233,0,0,0-1.475-2.735,2.112,2.112,0,0,0-2.665,1.458c-.029.092-.654,2.3-1.142,4.593-.5,2.3-.854,4.6-.867,4.694a2.221,2.221,0,0,0,1.8,2.522,2.074,2.074,0,0,0,1.125-.111A2.135,2.135,0,0,0,44.855,203.854Zm6.032-28.111c.06-1.318-.958-3.015-2.276-3.075-.019,0-2.332-.087-4.736-.3-2.336-.232-4.8-.555-4.815-.558a2.456,2.456,0,0,0-2.71,2.093,2.536,2.536,0,0,0,2.018,2.858,38.027,38.027,0,0,0,5.057.922,29.884,29.884,0,0,1,4.967.929H48.5C49.774,178.608,50.831,177.027,50.886,175.743Zm-25.14-2.879,1.139-1.183c.669-.683,1.552-1.566,2.561-2.462,1.933-1.75,4-3.36,4.021-3.374a2.389,2.389,0,0,0-2.933-3.773c-.092.068-2.223,1.731-4.275,3.584-1.084.961-2.054,1.931-2.8,2.694l-1.156,1.2a2.389,2.389,0,0,0,3.444,3.311Zm22.123-9.379a2.387,2.387,0,0,0-1.839-2.834s-2.375-.507-4.854-1.192c-1.233-.338-2.493-.712-3.381-.992l-1.566-.536a2.39,2.39,0,0,0-1.537,4.526L36.3,163c.992.316,2.317.71,3.611,1.062,2.614.722,5.124,1.258,5.124,1.258a2.234,2.234,0,0,0,.5.053A2.385,2.385,0,0,0,47.869,163.484Zm-25.652-7.376c.024-.014,2.382-1.492,4.757-2.742,1.2-.632,2.368-1.229,3.3-1.644L31.927,151a2.39,2.39,0,1,0-1.914-4.381l-1.658.724c-1.033.456-2.3,1.1-3.6,1.788-2.544,1.335-4.974,2.86-5.078,2.925a2.389,2.389,0,0,0,1.272,4.412A2.357,2.357,0,0,0,22.217,156.108Zm25.147-4.118a2.39,2.39,0,0,0-1.219-3.152l-1.494-.659c-.869-.41-2.035-.98-3.217-1.6-2.31-1.2-4.692-2.633-4.716-2.648a2.389,2.389,0,1,0-2.469,4.091c.1.06,2.534,1.528,4.977,2.793,1.238.649,2.467,1.253,3.439,1.709l1.547.683a2.363,2.363,0,0,0,.965.205A2.387,2.387,0,0,0,47.365,151.99Zm-24.6-13.157,1.723-.538c1-.3,2.426-.654,3.811-.978,2.778-.652,5.588-1.115,5.616-1.12a2.388,2.388,0,1,0-.772-4.714c-.121.019-3,.49-5.935,1.18-1.492.35-3.024.731-4.122,1.062l-1.743.543a2.389,2.389,0,0,0,.71,4.67A2.3,2.3,0,0,0,22.765,138.834Zm26.678,1.931a2.39,2.39,0,0,0-.538-3.336c-.022-.017-2.2-1.593-4.354-3.362-1.084-.886-2.17-1.813-2.93-2.488l-1.313-1.216a2.389,2.389,0,1,0-3.251,3.5l1.352,1.255c.84.746,1.982,1.723,3.116,2.648,2.257,1.858,4.492,3.471,4.583,3.541a2.372,2.372,0,0,0,1.4.454A2.4,2.4,0,0,0,49.443,140.765ZM27.209,122.322c.031,0,3.034-.205,5.957-.237,2.908-.056,5.824.065,5.853.07a2.389,2.389,0,1,0,.2-4.774c-.123,0-3.075-.133-6.119-.075-3.051.034-6.087.239-6.217.249a2.39,2.39,0,0,0,.162,4.774Q27.125,122.329,27.209,122.322Zm26.632,7.559a2.385,2.385,0,0,0,.109-3.374c-.014-.017-1.941-2.071-3.821-4.306-1.834-2.155-3.538-4.463-3.558-4.485a2.392,2.392,0,0,0-3.546-.343c-1.839,1.7-.714,3.017,3.456,7.914,1.941,2.305,3.9,4.4,3.982,4.487a2.39,2.39,0,0,0,3.377.106Zm-4.052-22.215a2.386,2.386,0,0,0-1.677-2.933l-1.895-.514c-1.137-.287-2.669-.644-4.226-.953s-3.147-.582-4.381-.765l-1.943-.265a2.39,2.39,0,1,0-.647,4.736l1.914.261c1.137.169,2.638.422,4.12.722s2.92.63,3.954.891l1.849.5a2.369,2.369,0,0,0,.63.084A2.394,2.394,0,0,0,49.788,107.667Zm10.135,12.628a2.389,2.389,0,0,0,.71-3.3c-.014-.024-1.564-2.431-2.858-4.917-1.32-2.474-2.5-5.209-2.51-5.235a2.389,2.389,0,1,0-4.39,1.885c.051.118,1.267,2.942,2.672,5.575,1.381,2.662,3,5.177,3.07,5.283a2.386,2.386,0,0,0,2.011,1.093A2.362,2.362,0,0,0,59.923,120.295Zm1.1-22.133a2.393,2.393,0,0,0-.734-3.3c-.109-.068-2.7-1.714-5.568-3.191-1.747-.92-3.314-1.62-4.113-1.962l-1.827-.77a2.389,2.389,0,1,0-1.858,4.4l1.813.763c1.216.524,2.585,1.178,3.775,1.805,2.686,1.385,5.187,2.969,5.211,2.986a2.391,2.391,0,0,0,3.3-.734Zm6.338,15.046a2.39,2.39,0,0,0,1.554-3c-.007-.027-.862-2.725-1.443-5.527-.577-2.735-.922-5.689-.924-5.718a2.39,2.39,0,0,0-4.748.548c.014.128.372,3.2.994,6.152.63,3.032,1.528,5.875,1.566,5.993a2.384,2.384,0,0,0,3,1.552Zm7.166-20.933a2.388,2.388,0,0,0,.222-3.372c-.084-.1-2.107-2.4-4.407-4.641-2.307-2.283-4.808-4.3-4.912-4.381a2.39,2.39,0,0,0-2.993,3.727c.024.019,2.418,1.948,4.557,4.065,2.175,2.119,4.142,4.359,4.161,4.381a2.392,2.392,0,0,0,3.372.222Zm1.813,16.338a2.428,2.428,0,0,0,2.373-2.457c0-.029-.017-2.949.212-5.829.234-2.819.707-5.759.712-5.788a2.384,2.384,0,0,0-2.259-2.766c-2.537-.121-2.677,1.661-3.217,8.194-.246,3.1-.227,6.1-.227,6.222a2.435,2.435,0,0,0,2.389,2.423ZM89.075,89.919a2.39,2.39,0,0,0,.956-3.242c-.06-.111-1.506-2.764-3.172-5.462-1.656-2.66-3.49-5.223-3.567-5.329a2.389,2.389,0,0,0-3.883,2.783c.017.027,1.82,2.542,3.389,5.064,1.593,2.578,3.022,5.2,3.036,5.23a2.392,2.392,0,0,0,2.1,1.248A2.424,2.424,0,0,0,89.075,89.919ZM90,104.266c.007-.029.734-2.836,1.634-5.614.881-2.752,1.962-5.479,1.974-5.505a2.39,2.39,0,0,0-4.441-1.767c-.046.118-1.154,2.9-2.083,5.807s-1.68,5.766-1.711,5.887a2.389,2.389,0,0,0,1.716,2.911,2.44,2.44,0,0,0,.6.077A2.4,2.4,0,0,0,90,104.266Zm13.41-13.929a2.39,2.39,0,0,0,1.986-2.353c0-.854-1.969-5.624-2.361-6.555-1.166-2.858-2.474-5.735-2.474-5.735a2.39,2.39,0,0,0-4.352,1.977c0,.012,1.272,2.8,2.409,5.58,1.134,2.723,2.122,5.5,2.131,5.525a2.393,2.393,0,0,0,2.254,1.6A2.576,2.576,0,0,0,103.412,90.337Zm-.951,13.929c.167-.355,1.318-2.773,2.578-5.172,1.238-2.382,2.575-4.709,2.788-5.076a2.485,2.485,0,0,0,.027-2.438l-2.069,1.2-.007,0-2.093-1.144c-.22.381-1.605,2.79-2.882,5.245-2.918,5.554-2.918,5.916-2.918,6.415a2.391,2.391,0,0,0,4.576.97Zm16-11.909a2.392,2.392,0,0,0,1.675-2.935l-1.559-5.7c-.816-2.918-1.745-5.824-1.745-5.824a2.389,2.389,0,0,0-4.552,1.453c0,.014.905,2.829,1.69,5.643l1.557,5.689a2.394,2.394,0,0,0,2.305,1.76A2.369,2.369,0,0,0,118.46,92.357Zm-2.9,13.487c.007-.01,1.559-2.435,3.186-4.8,1.465-2.122,2.988-4.2,3.278-4.6a2.525,2.525,0,0,0,.251-2.561l-2.136,1.086-1.972-1.344c-.3.405-1.854,2.534-3.352,4.707-1.68,2.435-3.278,4.936-3.278,4.936a2.389,2.389,0,0,0,4.023,2.575Zm17.269-10.108a2.39,2.39,0,0,0,1.849-2.829l-2.433-11.267a2.391,2.391,0,0,0-4.668,1.038L130,93.89a2.389,2.389,0,0,0,2.336,1.9A2.631,2.631,0,0,0,132.826,95.736Zm-3.785,12.686c.007-.01,1.747-2.216,3.512-4.332l3.64-4.284a2.39,2.39,0,0,0-3.645-3.092l-3.652,4.3c-1.825,2.187-3.608,4.451-3.608,4.451a2.389,2.389,0,1,0,3.753,2.957ZM147,99.919a2.388,2.388,0,0,0,1.921-2.78l-1.972-10.82a2.389,2.389,0,1,0-4.7.859L144.221,98a2.387,2.387,0,0,0,2.348,1.96A2.187,2.187,0,0,0,147,99.919Zm-4.26,11.81,7.439-7.777a2.39,2.39,0,0,0-3.423-3.338l-7.5,7.844a2.389,2.389,0,0,0,3.483,3.27Zm18.283-7.132a2.391,2.391,0,0,0,1.933-2.771l-1.827-10.239a2.389,2.389,0,1,0-4.7.838l1.827,10.239a2.392,2.392,0,0,0,2.351,1.969A2.085,2.085,0,0,0,161.022,104.6Zm14.163,3.8a2.225,2.225,0,0,0,1.8-2.583l-1.7-9.536a2.225,2.225,0,1,0-4.381.782l1.7,9.536a2.229,2.229,0,0,0,2.189,1.834A1.975,1.975,0,0,0,175.185,108.4Zm-18.541,7.019,7.451-6.934a2.388,2.388,0,1,0-3.225-3.524l-7.511,6.99a2.389,2.389,0,1,0,3.285,3.468Zm14.482,4.827,7.451-6.934a2.388,2.388,0,0,0-3.225-3.524l-7.511,6.99a2.389,2.389,0,1,0,3.285,3.468Zm17.994-5.988a2.389,2.389,0,0,0,1.571-2.99c0-.014-.625-2.011-1.185-4.089l-1.13-4.349a2.389,2.389,0,1,0-4.625,1.2l1.134,4.376c.591,2.194,1.243,4.284,1.243,4.284a2.389,2.389,0,0,0,2.281,1.68A2.418,2.418,0,0,0,189.119,114.256ZM185.2,125.322l6.876-5.349a2.39,2.39,0,0,0-2.9-3.8l-6.932,5.39a2.391,2.391,0,0,0,1.482,4.267A2.359,2.359,0,0,0,185.2,125.322Zm14.95.577,6.321-4.748a2.39,2.39,0,1,0-2.872-3.821l-6.321,4.745a2.391,2.391,0,1,0,2.872,3.823Zm18.954-9.618-.012-1-.7-.7a23.321,23.321,0,0,1-2.006-2.312,28.307,28.307,0,0,1-1.788-2.616,2.415,2.415,0,0,0-2.694-1.074,2.4,2.4,0,0,0-1.39,3.553,34.6,34.6,0,0,0,2.081,3.044,27.287,27.287,0,0,0,2.421,2.785,2.391,2.391,0,0,0,4.089-1.677Zm-14.482-2.414-.012-1-.7-.7a23.322,23.322,0,0,1-2.006-2.312,28.308,28.308,0,0,1-1.789-2.616,2.415,2.415,0,0,0-2.694-1.074,2.4,2.4,0,0,0-1.39,3.553,34.617,34.617,0,0,0,2.081,3.044,27.288,27.288,0,0,0,2.421,2.785,2.391,2.391,0,0,0,4.089-1.677ZM216.144,127l2.824-2.414c.7-.594,1.385-1.243,1.875-1.7l.758-.724a2.389,2.389,0,0,0-3.295-3.461l-.753.717c-.437.415-1.05.994-1.694,1.545l-2.766,2.363A2.389,2.389,0,1,0,216.144,127Zm17.482-4.306.483-1.286c.193-.7.415-1.605.623-2.551.106-.64.162-1.267.208-1.8l.043-.456a6.73,6.73,0,0,0,.034-1.47,2.357,2.357,0,0,0-2.583-2.1,2.409,2.409,0,0,0-2.172,2.568,2.3,2.3,0,0,1-.024.447l-.056.6c-.036.415-.075.91-.138,1.291-.154.7-.345,1.47-.512,2.093l-.362.946a2.387,2.387,0,1,0,4.456,1.714ZM222,111.724a20.691,20.691,0,0,0,2.566,1.745,22.375,22.375,0,0,0,2.674,1.089,2.39,2.39,0,0,0,1.465-4.55,17.319,17.319,0,0,1-1.887-.753,15.977,15.977,0,0,1-1.805-1.238A2.388,2.388,0,1,0,222,111.724Z" fill="#edeadc"/>
          </g>
        </g>
      </g>
      <g id="Group_133" data-name="Group 133" transform="translate(888.325 1610.502)">
        <g id="Group_255" data-name="Group 255" transform="translate(98.765 63.518)">
          <path id="Path_49-2" data-name="Path 49-2" d="M1130.844,513.425A22.385,22.385,0,0,0,1141.7,526.4c.529.264.529.795-1.058.529a16.686,16.686,0,0,1-5.289-1.588,18.071,18.071,0,0,1-10.059-10.588,34.052,34.052,0,0,1-2.912-14.559s-1.329-1.059-2.388-2.118h15.354C1131.109,502.306,1129.521,508.924,1130.844,513.425Z" transform="translate(-1119.99 -498.071)" fill="#5a5a5a"/>
        </g>
        <g id="Group_256" data-name="Group 256" transform="translate(0 0)">
          <path id="Path_50-2" data-name="Path 50-2" d="M758.5,335.012s2.647-3.706,1.059-11.119-11.912-12.707-11.912-12.707l-6.618-3.965s-2.647-3.176-.529-5.825,9-5.558,9-5.558.529-13.235,1.059-18.265a15.166,15.166,0,0,1,1.059-3.706c.795-5.824-2.911-8.471-5.029-11.119a3.948,3.948,0,0,1-.529-5.288c1.588-1.323,5.03-1.323,5.825.795.794,2.912,5.029,4.765,8.736,6.089,2.118-1.324,3.706-2.118,3.706-2.118l7.147-2.911h4.235l3.436-5.835h2.382l2.912,4.5h40.237l15.882,4.237H959.416s3.706-6.089,4.5-7.147,2.912-2.383,5.559,0a71.163,71.163,0,0,1,6.353,7.147h7.412v3.97h7.147v32.3H983.24v4.5h-9.265v3.971H956.768v2.118h-63s-13.235,5.289-13.235,14.559-.795,18-.795,18-7.677,11.118-29.648,10.853c-19.855-.006-31.231-4.247-31.231-4.247l-13.235,42.879a26.868,26.868,0,0,0,0,9.795c.529,1.588,1.059,3.442,1.588,5.288,1.059,3.176-5.03,5.824-5.03,5.824H750.026s-9.8-2.9-9.8-16.4a91.1,91.1,0,0,1,4.235-25.942Zm65.651,1.854c.794,3.971,8.205,11.647,27,11.647s24.089-7.941,24.089-7.941V324.421S871,314.892,858.3,314.892H833.412c-1.324.795-5.03,1.858-6.089,3.176a13.563,13.563,0,0,0-3.176,6.356A38.737,38.737,0,0,0,824.147,336.866Z" transform="translate(-739.676 -253.48)" fill="#5a5a5a"/>
        </g>
      </g>
    </g>
  </g>
</svg>
