<svg xmlns="http://www.w3.org/2000/svg" width="741.102" height="641.578" viewBox="0 0 741.102 641.578">
  <g id="Group_531" data-name="Group 531" transform="translate(-7058.203 -15638.241)">
    <path id="Path_1657" data-name="Path 1657" d="M601.306,341.894c0-53.552-30.811-99.473-75.4-122.377V169.994a20,20,0,0,0-19.963-19.963H468.8V118.559c5.4-1.569,10.372-4.305,13.86-8.653a23.635,23.635,0,0,0,5.009-18.556l-3.68-22.861C481.954,55.332,468.833,45.9,454.24,48.447a27.269,27.269,0,0,0-12.14,5.52L417.711,38.778a1.374,1.374,0,0,0,.12-.355,27.15,27.15,0,0,0-1.96-19.536A23.333,23.333,0,0,0,400.995,6.753L378.6.728c-12.724-3.367-26.776,5.285-30.462,19.025a23.861,23.861,0,0,0-.271,3.836l-23.252,3.68c-6.049-12.489-21-18.634-32.981-13.156l-21.022,9.705c-11.683,5.4-16.518,19.572-11.683,32.3L241.415,74.237l-28.6-19.963a20.011,20.011,0,0,0-27.8,4.931L156.638,99.8C106.982,93.064,55.421,113.033,24.73,156.916-16.807,216.342-4.553,296.742,50.49,342.08l15.6-22.314C23.341,283.093,14.123,219.674,47.069,172.5A110.889,110.889,0,0,1,228.806,299.611c-33.486,47.876-97.826,60.713-147.289,31.274l-15.6,22.308c61.79,38.008,143.1,22.236,185.183-38.044,30.69-43.889,31.767-99.161,8.358-143.44l28.423-40.63a20.087,20.087,0,0,0-4.931-27.834L253.045,82.336l14.149-14.678a24.979,24.979,0,0,0,15.736,5.989,23.084,23.084,0,0,0,9.711-2.117l21.039-9.7c7.889-3.68,12.357-11.431,13.253-19.963l23.06-3.638c.313.667.355,1.407.661,2.074a23.6,23.6,0,0,0,14.329,11.118l22.392,6.025a23.56,23.56,0,0,0,5.947.824,24.509,24.509,0,0,0,16.6-6.927l23.331,14.527A22.9,22.9,0,0,0,432.16,76.75l3.674,22.861c1.527,9.747,9.158,17.029,18.947,19.338v31.081h-34.37a20.022,20.022,0,0,0-19.963,19.963v49.523c-44.55,22.9-75.355,68.819-75.355,122.377,0,72.529,56.1,131.378,127.181,137.013V451.662c-56.053-5.52-99.978-52.3-99.978-109.768a110.883,110.883,0,0,1,221.766,0c0,58.447-45.41,105.853-102.8,110.08v27.245C543.72,474.95,601.306,415.373,601.306,341.894ZM232.642,121.734a12.122,12.122,0,1,1-19.867-13.9c2.664-3.794,7.047-4.738,11.395-4.185L235.324,87.64l8.514,5.989L232.666,109.6C234.675,113.472,235.324,117.933,232.642,121.734Zm75.475-71.916L287.09,59.529c-3.367,1.563-7.3.74-10.607-1.491l4.66-4.816a7,7,0,1,0-10.078-9.705l-.415.427c.643-3.518,2.333-6.614,5.52-8.1l21-9.711a10,10,0,0,1,4.167-.9c3.283,0,6.145,1.84,8.533,4.383l-3.055.469a7.407,7.407,0,0,0,1.154,14.72,5.93,5.93,0,0,0,1.155-.12l3.7-.589C311.816,46.487,310.487,48.724,308.118,49.818Zm94.44-20.474a7.385,7.385,0,0,0-7.829,12.525l2.976,1.84a9.936,9.936,0,0,1-6.891.98L368.422,38.7c-1.485-.433-2.351-1.84-3.518-2.82l5.394-.86a7.362,7.362,0,0,0,6.145-8.454,7.1,7.1,0,0,0-8.454-6.145l-5.947.938c2.074-4.7,6.025-8.178,10.607-8.178a9.289,9.289,0,0,1,2.549.313l22.35,5.989A10.554,10.554,0,0,1,404.128,25c.866,1.684.433,3.722.553,5.64Zm46.306,68.194L445.19,74.676c-.042-.391.355-.782.355-1.173l1.8,1.094a7.371,7.371,0,0,0,3.914,1.173,7.453,7.453,0,0,0,6.266-3.524,7.329,7.329,0,0,0-2.351-10.138c.427-.12.661-.547,1.094-.625a16.114,16.114,0,0,1,2.387-.2c6.266,0,11.431,3.914,12.291,9.278l3.68,22.861a10.539,10.539,0,0,1-2.309,8.22c-.866,1.058-2.429,1.251-3.524,2V98.511a7.008,7.008,0,1,0-14.016,0v6.344C451.726,103.25,449.375,100.826,448.864,97.537Zm14.329,108.547a12.134,12.134,0,0,1-12.134-12.1c0-4.7,3.055-7.985,6.927-10.024V164.468h10.409v19.494c3.836,2.032,6.891,5.322,6.891,10.024A12.091,12.091,0,0,1,463.193,206.084Z" transform="matrix(0.951, -0.309, 0.309, 0.951, 7058.203, 15824.055)" fill="#484848" opacity="0.113"/>
    <g id="Group_451" data-name="Group 451" transform="translate(7161.082 15819.563)">
      <g id="Group_133" data-name="Group 133" transform="translate(0 114.939)">
        <g id="Group_255" data-name="Group 255" transform="translate(105.786 68.034)">
          <path id="Path_49-2" data-name="Path 49-2" d="M1131.616,514.516a23.971,23.971,0,0,0,11.624,13.893c.567.283.567.851-1.134.567a17.869,17.869,0,0,1-5.665-1.7,19.36,19.36,0,0,1-10.775-11.341,36.468,36.468,0,0,1-3.119-15.594s-1.424-1.134-2.558-2.269h16.445C1131.9,502.607,1130.2,509.7,1131.616,514.516Z" transform="translate(-1119.99 -498.071)" fill="#5c5c5c"/>
        </g>
        <g id="Group_256" data-name="Group 256" transform="translate(0 0)">
          <path id="Path_50-2" data-name="Path 50-2" d="M759.834,340.808s2.835-3.97,1.134-11.909-12.759-13.61-12.759-13.61l-7.088-4.247s-2.835-3.4-.566-6.238,9.645-5.954,9.645-5.954.566-14.176,1.134-19.564a16.247,16.247,0,0,1,1.135-3.97c.851-6.238-3.119-9.074-5.387-11.909a4.228,4.228,0,0,1-.567-5.664c1.7-1.417,5.387-1.417,6.239.851.851,3.119,5.387,5.1,9.357,6.522,2.269-1.418,3.969-2.269,3.969-2.269l7.655-3.118h4.536l3.68-6.249H784.5l3.119,4.819h43.1l17.012,4.538H975.038s3.969-6.522,4.819-7.655,3.119-2.552,5.954,0a76.231,76.231,0,0,1,6.8,7.655h7.939v4.253h7.654v34.6h-7.654v4.819h-9.923v4.253H972.2v2.269h-67.48s-14.176,5.665-14.176,15.594-.851,19.28-.851,19.28-8.222,11.909-31.756,11.624c-21.266-.006-33.451-4.548-33.451-4.548l-14.176,45.927a28.776,28.776,0,0,0,0,10.491c.567,1.7,1.134,3.686,1.7,5.664,1.134,3.4-5.387,6.238-5.387,6.238H750.762s-10.491-3.1-10.491-17.564a97.585,97.585,0,0,1,4.536-27.786Zm70.318,1.985c.851,4.253,8.789,12.475,28.92,12.475s25.8-8.506,25.8-8.506v-17.3s-4.536-10.207-18.146-10.207H840.075c-1.418.851-5.387,1.99-6.521,3.4a14.529,14.529,0,0,0-3.4,6.808A41.5,41.5,0,0,0,830.152,342.793Z" transform="translate(-739.675 -253.48)" fill="#5c5c5c"/>
        </g>
      </g>
      <g id="Group_450" data-name="Group 450" transform="matrix(0.829, 0.559, -0.559, 0.829, 375.13, 0)">
        <path id="Path_1617" data-name="Path 1617" d="M20.244,99.765A64.782,64.782,0,0,1,1.081,64.922C-2.839,43.145,5,28.337,7.178,23.111c2.178-5.662,5.226-13.937,6.1-16.986S14.582.463,18.067.028,24.6,4.383,26.777,9.609c2.178,5.662,8.275,19.163,6.1,39.2-1.742,15.679-4.791,19.163-7.4,30.923S22.857,94.974,24.6,98.894C25.906,102.378,20.244,100.636,20.244,99.765Z" transform="translate(0 88.966)" fill="#6a9043"/>
        <path id="Path_1618" data-name="Path 1618" d="M0,63.588l1.742-6.1c.871-3.049,1.307-5.226,1.307-5.226A113.454,113.454,0,0,1,24.39,36.149c12.195-6.969,27-13.5,27-13.5s6.533-3.484,10.017-5.662,8.275-3.92,12.195-6.969S86.236,0,86.236,0a16.355,16.355,0,0,0,0,4.791,10.51,10.51,0,0,0,1.307,3.484s-10.888,4.791-13.937,6.969-4.355,3.049-4.355,3.049H81.88c5.226,0,14.808,1.307,14.808,1.307A31.033,31.033,0,0,0,91.9,22.648,17.368,17.368,0,0,0,88.849,25.7H76.654A107.876,107.876,0,0,0,58.8,27.439c-4.355.871-18.728,7.4-23.519,10.017S18.292,48.78,14.373,51.393,0,63.588,0,63.588Z" transform="translate(31.568 94.655)" fill="#6a9043"/>
        <path id="Path_1619" data-name="Path 1619" d="M3.231,8.42C.182,7.985-1.56,5.807,1.924,4.065s21.341-7.4,38.762-1.307S62.463,19.309,71.61,25.842c3.92,3.049,6.969,3.92,6.533,6.533-.436,3.049-8.275,4.791-21.341,3.049-14.808-2.178-27.874-6.969-38.762-17.857C10.2,10.162,5.409,8.856,3.231,8.42Z" transform="translate(47.936 144.597)" fill="#6a9043"/>
        <path id="Path_1620" data-name="Path 1620" d="M13.066,108.942c0-3.92-.436-13.5-5.662-27.439C1.742,68,0,57.549,0,50.145,0,32.288,1.742,15.738.436,9.205c-.871-3.92,0-13.066,6.533-7.4,7.84,6.969,18.292,27.874,19.6,40.069,1.307,13.066-3.484,34.843-4.791,43.553s-2.613,18.292-2.613,22.212c0,2.613-1.742,6.1-3.484,5.226C14.373,113.3,13.066,111.991,13.066,108.942Z" transform="translate(24.164 21.862)" fill="#6a9043"/>
        <path id="Path_1621" data-name="Path 1621" d="M.238,90.3c2.178-17.421,6.1-36.149,8.711-54.006s.436-26.568,0-29.616-.436-10.017,7.4-4.791S32.032,30.2,32.032,44.569c0,14.808-6.969,40.5-13.066,49.651-3.049,4.791-6.1,13.066-7.4,19.6-.871,3.92-.871,7.4-1.742,7.84C6.771,122.094-1.5,104.673.238,90.3Z" transform="translate(55.284 0)" fill="#6a9043"/>
        <path id="Path_1622" data-name="Path 1622" d="M3.388,109.384c-6.1-2.613-2.613-22.648,0-32.229,8.711-33.536,27-42.682,27.439-71.863,0-7.4,4.791-6.969,10.453.871,6.533,8.711,8.275,41.376.436,60.539C30.391,93.269,10.792,112.433,3.388,109.384Z" transform="translate(80.444 1.386)" fill="#6a9043"/>
        <path id="Path_1623" data-name="Path 1623" d="M0,43.105a13.3,13.3,0,0,1,9.582,7.4C12.63,57.043,12.63,67.5,12.63,67.5s.436,1.307,2.178-.436c1.307-1.307,6.1-7.4,10.888-11.759,5.662-5.226,21.777-15.679,27-27.439,6.969-15.679,9.146-31.794,0-27C43.118,5.65,36.149,15.231,23.083,22.2,4.791,30.911,0,43.105,0,43.105Z" transform="translate(143.936 19.32)" fill="#6a9043"/>
        <path id="Path_1624" data-name="Path 1624" d="M0,65.287l1.307-6.533s1.307,1.307,9.146-.871,13.5-3.92,20.47-11.759S46.167,23.475,57.49,16.942,108.448-3.528,111.5.828s-2.613,13.066-6.969,17.857S79.7,43.945,67.943,46.559c-11.759,3.049-30.923.436-36.149,3.484s-13.066,8.275-13.066,8.275H46.6c6.1,0,10.453-.436,20.906-4.355s20.47-8.711,27.439-13.5S125,23.475,142.855,22.6c18.292-.871,27.874.436,34.843,0,6.969,0,8.711,5.226,1.307,9.582-7.4,4.791-32.229,22.648-51.828,25.261S81.88,55.7,73.605,55.269c-8.275,0-19.163,4.791-19.163,5.662s9.582,6.533,30.923,8.711c13.5,1.307,27.874,7.4,36.149,13.066s27,20.47,29.616,23.083,7.84,9.582-1.742,10.017S109.754,107.1,96.253,96.645,80.138,85.321,75.347,80.095C70.556,75.3,64.895,65.722,54.006,63.544c-10.888-2.613-36.149-2.613-36.149-2.613s21.341,6.1,27.874,10.017c6.969,3.92,34.407,21.777,46.6,40.5s13.937,27.874,13.5,32.665-1.742,8.275-14.808,1.307-27.439-15.244-35.714-26.568S43.118,97.952,38.762,85.321c-4.355-12.195-4.355-18.292-20.035-21.777A33.088,33.088,0,0,0,0,65.287Z" transform="translate(154.824 31.546)" fill="#6a9043"/>
        <path id="Path_1625" data-name="Path 1625" d="M34.156,14.171C32.85.669,22.4-3.686,10.2,3.283S-.251,27.237.62,32.9C1.927,42.916,11.508,48.578,21.526,46.4,31.979,43.787,35.463,27.673,34.156,14.171ZM22.832,5.46a22.88,22.88,0,0,0-7.84.871s4.355-4.355,8.275-3.049A9.049,9.049,0,0,1,28.93,8.945S25.881,5.9,22.832,5.46Z" transform="translate(119.361 64.805)" fill="#6a9043"/>
        <path id="Path_1626" data-name="Path 1626" d="M35.916,7.635C31.125,1.1,20.237-4.125,8.477,4.586S.2,26.8,1.509,32.025c2.178,8.711,11.759,25.261,32.665,17.421C47.675,44.22,42.013,15.474,35.916,7.635ZM22.85,5.457a22.88,22.88,0,0,0-7.84.871s4.355-4.355,8.275-3.049a9.049,9.049,0,0,1,5.662,5.662S25.9,5.893,22.85,5.457Z" transform="translate(115.86 115.766)" fill="#6a9043"/>
        <path id="Path_1627" data-name="Path 1627" d="M26.132,1.137C14.373-1.911,3.92,1.573,0,6.8c0,0,4.791,1.742,7.84,8.275,3.049,6.1,5.226,12.63,5.226,17.857,0,3.92.436,4.355.436,4.355S26.568,49.482,40.94,35.98C50.957,26.4,42.247,5.493,26.132,1.137Zm-3.92,3.049A30.33,30.33,0,0,0,13.5,2.88S18.728.7,22.648,2.008A10.156,10.156,0,0,1,28.31,7.67,19.563,19.563,0,0,0,22.212,4.186Z" transform="translate(147.42 108.762)" fill="#6a9043"/>
        <path id="Path_1628" data-name="Path 1628" d="M0,0" transform="translate(117.368 98.575)" fill="#6a9043"/>
      </g>
    </g>
  </g>
</svg>
