<svg xmlns="http://www.w3.org/2000/svg" width="438.023" height="483.758" viewBox="0 0 438.023 483.758">
  <g id="Group_514" data-name="Group 514" transform="translate(-499.121 -283.28)">
    <g id="Group_488" data-name="Group 488" transform="translate(499.121 283.28)">
      <g id="Group_452" data-name="Group 452" transform="translate(258.174 167.892)">
        <path id="Path_1629" data-name="Path 1629" d="M143.6,38.385,60.569,93.126a36.879,36.879,0,0,0-2.69-4.237L140.606,34.4A32.784,32.784,0,0,0,143.6,38.385Z" transform="translate(-57.879 -34.4)" fill="#f7a45d"/>
      </g>
      <g id="Group_453" data-name="Group 453" transform="translate(161.752 294.054)">
        <path id="Path_1630" data-name="Path 1630" d="M68.321,62.868,42.473,120.891a18.943,18.943,0,0,0-4.484-2.245l26-58.221,1.047.446c.053,0,.053.053.1.053s.053.053.1.053c0,0,.053,0,.053.048A31.661,31.661,0,0,0,68.321,62.868Z" transform="translate(-37.989 -60.425)" fill="#f7a45d"/>
      </g>
      <g id="Group_454" data-name="Group 454" transform="translate(91.324 309.14)">
        <path id="Path_1631" data-name="Path 1631" d="M72.767,110.953a21.747,21.747,0,0,0-3.233,3.781L23.461,66.77A18.53,18.53,0,0,0,27.3,63.537Z" transform="translate(-23.461 -63.537)" fill="#f7a45d"/>
      </g>
      <g id="Group_455" data-name="Group 455" transform="translate(283.978 353.618)">
        <path id="Path_1632" data-name="Path 1632" d="M170.928,77.492,64.147,101.047a26.856,26.856,0,0,0-.945-4.93l106.238-23.4A19,19,0,0,0,170.928,77.492Z" transform="translate(-63.202 -72.712)" fill="#f7a45d"/>
      </g>
      <g id="Group_456" data-name="Group 456" transform="translate(86.496 173.021)">
        <path id="Path_1633" data-name="Path 1633" d="M59.521,37.751,27,140a18.145,18.145,0,0,0-4.533-2.094L55.037,35.458A26.905,26.905,0,0,0,59.521,37.751Z" transform="translate(-22.465 -35.458)" fill="#f7a45d"/>
      </g>
      <g id="Group_457" data-name="Group 457" transform="translate(230.44 299.125)">
        <path id="Path_1634" data-name="Path 1634" d="M74.215,120.056a26.079,26.079,0,0,0-4.78,1.338L52.158,63.119a41.453,41.453,0,0,0,4.731-1.648Z" transform="translate(-52.158 -61.471)" fill="#f7a45d"/>
      </g>
      <g id="Group_458" data-name="Group 458" transform="translate(99.343 263.523)">
        <path id="Path_1635" data-name="Path 1635" d="M94,58.907,26.361,82.961a17.825,17.825,0,0,0-1.246-4.833l67.485-24A49.582,49.582,0,0,0,94,58.907Z" transform="translate(-25.115 -54.127)" fill="#f7a45d"/>
      </g>
      <g id="Group_459" data-name="Group 459" transform="translate(149.347 170.383)">
        <path id="Path_1636" data-name="Path 1636" d="M71.594,75.7c-1.3,1.047-2.589,2.094-3.786,3.238L35.43,37.8a25.69,25.69,0,0,0,4.038-2.889Z" transform="translate(-35.43 -34.914)" fill="#f7a45d"/>
      </g>
      <g id="Group_460" data-name="Group 460" transform="translate(40.123 128.596)">
        <path id="Path_1637" data-name="Path 1637" d="M79.042,38.045A23.018,23.018,0,0,0,78.1,42.98L12.9,31.224a16.223,16.223,0,0,0,.9-4.93Z" transform="translate(-12.899 -26.294)" fill="#f7a45d"/>
      </g>
      <g id="Group_461" data-name="Group 461" transform="translate(387.57 35.805)">
        <path id="Path_1638" data-name="Path 1638" d="M115.1,8.6,89.108,83.156a30.928,30.928,0,0,0-4.537-2.041L110.322,7.153A21.12,21.12,0,0,0,115.1,8.6Z" transform="translate(-84.571 -7.153)" fill="#f7a45d"/>
      </g>
      <g id="Group_462" data-name="Group 462" transform="translate(239.35 78.141)">
        <path id="Path_1639" data-name="Path 1639" d="M153.661,65.842a28.892,28.892,0,0,0-2.046,4.586L54,20.322a19.208,19.208,0,0,0,2.094-4.436Z" transform="translate(-53.996 -15.886)" fill="#f7a45d"/>
      </g>
      <g id="Group_463" data-name="Group 463" transform="translate(214.093 91.942)">
        <path id="Path_1640" data-name="Path 1640" d="M59.049,18.777l-5.231,108.73c-.9-.048-1.745-.048-2.642-.048-.8,0-1.595,0-2.39.048L54.065,18.733a15.1,15.1,0,0,0,2.589.2A19.859,19.859,0,0,0,59.049,18.777Z" transform="translate(-48.786 -18.733)" fill="#f7a45d"/>
      </g>
      <g id="Group_464" data-name="Group 464" transform="translate(24.736 146.077)">
        <path id="Path_1641" data-name="Path 1641" d="M60.127,159a18.7,18.7,0,0,0-4.634,1.8L9.725,31.543A21.727,21.727,0,0,0,14.408,29.9Z" transform="translate(-9.725 -29.9)" fill="#f7a45d"/>
      </g>
      <g id="Group_465" data-name="Group 465" transform="translate(367.054 291.911)">
        <path id="Path_1642" data-name="Path 1642" d="M114.108,99.773a17.849,17.849,0,0,0-4.087,2.889L80.339,62.62a24.061,24.061,0,0,0,4.334-2.637Z" transform="translate(-80.339 -59.983)" fill="#f7a45d"/>
      </g>
      <g id="Group_466" data-name="Group 466" transform="translate(356.796 184.476)">
        <path id="Path_1643" data-name="Path 1643" d="M90.672,38.718,83.1,93.4a22.969,22.969,0,0,0-4.877-.843L85.79,37.821A39.164,39.164,0,0,0,90.672,38.718Z" transform="translate(-78.223 -37.821)" fill="#f7a45d"/>
      </g>
      <g id="Group_467" data-name="Group 467" transform="translate(80.766 377.634)">
        <path id="Path_1644" data-name="Path 1644" d="M77.614,82.189,23.178,104.508a30.736,30.736,0,0,0-1.9-4.63l54.29-22.212A17.608,17.608,0,0,0,77.614,82.189Z" transform="translate(-21.283 -77.666)" fill="#f7a45d"/>
      </g>
      <g id="Group_468" data-name="Group 468" transform="translate(265.993 259.029)">
        <path id="Path_1645" data-name="Path 1645" d="M118.518,62.474a12.3,12.3,0,0,0,.048,1.338L59.492,58.135a39.3,39.3,0,0,0,.945-4.935l58.323,5.58A30.964,30.964,0,0,0,118.518,62.474Z" transform="translate(-59.492 -53.2)" fill="#f7a45d"/>
      </g>
      <g id="Group_469" data-name="Group 469" transform="translate(58.452 314.221)">
        <path id="Path_1646" data-name="Path 1646" d="M35.955,65.831,21.562,136.21a26.342,26.342,0,0,0-4.882-.9L31.121,64.585A17.648,17.648,0,0,0,35.955,65.831Z" transform="translate(-16.68 -64.585)" fill="#f7a45d"/>
      </g>
      <g id="Group_470" data-name="Group 470" transform="translate(280.692 395.556)">
        <path id="Path_1647" data-name="Path 1647" d="M146.1,122.254a31.422,31.422,0,0,0-1.643,4.78L62.524,85.794a22.15,22.15,0,0,0,2.337-4.431Z" transform="translate(-62.524 -81.363)" fill="#f7a45d"/>
      </g>
      <g id="Group_471" data-name="Group 471" transform="translate(405.754 370.251)">
        <path id="Path_1648" data-name="Path 1648" d="M95.395,76.2l-2.148,43.431c-1.59-.4-3.233-.747-4.925-.994l2.089-42.49a14.693,14.693,0,0,0,2.589.2A18.088,18.088,0,0,0,95.395,76.2Z" transform="translate(-88.322 -76.143)" fill="#f7a45d"/>
      </g>
      <g id="Group_472" data-name="Group 472" transform="translate(240.897 18.276)">
        <path id="Path_1649" data-name="Path 1649" d="M215.488,8.414v.053L55.658,53.488a19.313,19.313,0,0,0-1.343-4.78L214.542,3.537A17.713,17.713,0,0,0,215.488,8.414Z" transform="translate(-54.315 -3.537)" fill="#f7a45d"/>
      </g>
      <g id="Group_473" data-name="Group 473" transform="translate(154.384 83.822)">
        <path id="Path_1650" data-name="Path 1650" d="M90.953,20.694,39.8,63.824a23.981,23.981,0,0,0-3.335-3.738L87.521,17.058A23.672,23.672,0,0,0,90.953,20.694Z" transform="translate(-36.469 -17.058)" fill="#f7a45d"/>
      </g>
      <g id="Group_474" data-name="Group 474" transform="translate(173.649 374.59)">
        <path id="Path_1651" data-name="Path 1651" d="M97.229,80.974a23.092,23.092,0,0,0-.7,4.979L40.443,81.915a19.439,19.439,0,0,0,1.348-4.877Z" transform="translate(-40.443 -77.038)" fill="#f7a45d"/>
      </g>
      <g id="Group_475" data-name="Group 475" transform="translate(170.435 205.656)">
        <path id="Path_1652" data-name="Path 1652" d="M85.834,42.19a46.054,46.054,0,1,0,46.005,46.054A46.1,46.1,0,0,0,85.834,42.19Z" transform="translate(-39.78 -42.19)" fill="#f7a45d"/>
      </g>
      <g id="Group_493" data-name="Group 493" transform="translate(338.852 110.858)">
        <path id="Path_1652-2" data-name="Path 1652" d="M74.545,42.19a34.765,34.765,0,1,0,34.729,34.765A34.8,34.8,0,0,0,74.545,42.19Z" transform="translate(-39.78 -42.19)" fill="#f7a45d"/>
      </g>
      <g id="Group_489" data-name="Group 489" transform="translate(108.917 122.959)">
        <path id="Path_1652-3" data-name="Path 1652" d="M64.859,42.19A25.079,25.079,0,1,0,89.912,67.269,25.1,25.1,0,0,0,64.859,42.19Z" transform="translate(-39.78 -42.19)" fill="#f7a45d"/>
      </g>
      <g id="Group_494" data-name="Group 494" transform="translate(328.767 243.474)">
        <path id="Path_1652-4" data-name="Path 1652" d="M64.978,42.19a25.2,25.2,0,1,0,25.172,25.2A25.221,25.221,0,0,0,64.978,42.19Z" transform="translate(-39.78 -42.19)" fill="#f7a45d"/>
      </g>
      <g id="Group_497" data-name="Group 497" transform="translate(367.09 416.934)">
        <path id="Path_1652-5" data-name="Path 1652" d="M73.192,42.19A33.412,33.412,0,1,0,106.569,75.6,33.442,33.442,0,0,0,73.192,42.19Z" transform="translate(-39.78 -42.19)" fill="#f7a45d"/>
      </g>
      <g id="Group_496" data-name="Group 496" transform="translate(233.465 360.459)">
        <path id="Path_1652-6" data-name="Path 1652" d="M63.153,42.19A23.373,23.373,0,1,0,86.5,65.563,23.394,23.394,0,0,0,63.153,42.19Z" transform="translate(-39.78 -42.19)" fill="#f7a45d"/>
      </g>
      <g id="Group_500" data-name="Group 500" transform="translate(36.306 389.201)">
        <path id="Path_1652-7" data-name="Path 1652" d="M61.789,42.19A22.009,22.009,0,1,0,83.775,64.2,22.029,22.029,0,0,0,61.789,42.19Z" transform="translate(-39.78 -42.19)" fill="#f7a45d"/>
      </g>
      <g id="Group_491" data-name="Group 491" transform="translate(204.833 54.458)">
        <path id="Path_1652-8" data-name="Path 1652" d="M56.039,42.19A16.259,16.259,0,1,0,72.28,58.449,16.273,16.273,0,0,0,56.039,42.19Z" transform="translate(-39.78 -42.19)" fill="#f7a45d"/>
      </g>
      <g id="Group_495" data-name="Group 495" transform="translate(395.438 334.314)">
        <path id="Path_1652-9" data-name="Path 1652" d="M56.039,42.19A16.259,16.259,0,1,0,72.28,58.449,16.273,16.273,0,0,0,56.039,42.19Z" transform="translate(-39.78 -42.19)" fill="#f7a45d"/>
      </g>
      <g id="Group_498" data-name="Group 498" transform="translate(137.769 355.997)">
        <path id="Path_1652-10" data-name="Path 1652" d="M56.039,42.19A16.259,16.259,0,1,0,72.28,58.449,16.273,16.273,0,0,0,56.039,42.19Z" transform="translate(-39.78 -42.19)" fill="#f7a45d"/>
      </g>
      <g id="Group_499" data-name="Group 499" transform="translate(64.653 278.343)">
        <path id="Path_1652-11" data-name="Path 1652" d="M56.039,42.19A16.259,16.259,0,1,0,72.28,58.449,16.273,16.273,0,0,0,56.039,42.19Z" transform="translate(-39.78 -42.19)" fill="#f7a45d"/>
      </g>
      <g id="Group_492" data-name="Group 492" transform="translate(405.523 0)">
        <path id="Path_1652-12" data-name="Path 1652" d="M56.039,42.19A16.259,16.259,0,1,0,72.28,58.449,16.273,16.273,0,0,0,56.039,42.19Z" transform="translate(-39.78 -42.19)" fill="#f7a45d"/>
      </g>
      <g id="Group_490" data-name="Group 490" transform="translate(0 108.022)">
        <path id="Path_1652-13" data-name="Path 1652" d="M58.461,42.19A18.681,18.681,0,1,0,77.122,60.871,18.7,18.7,0,0,0,58.461,42.19Z" transform="translate(-39.78 -42.19)" fill="#f7a45d"/>
      </g>
    </g>
    <g id="Group_516" data-name="Group 516" transform="translate(507.128 290.577)">
      <g id="Group_502" data-name="Group 502" transform="translate(37.314 392.59)">
        <path id="Path_1654" data-name="Path 1654" d="M43.761-174.73a10.33,10.33,0,0,0,10.33-10.331,10.329,10.329,0,0,0-10.33-10.33,10.331,10.331,0,0,0-10.331,10.33A10.331,10.331,0,0,0,43.761-174.73Z" transform="translate(-30.354 195.391)" fill="#de8933"/>
        <path id="Path_1655" data-name="Path 1655" d="M40.2-149.078a12.273,12.273,0,0,1-7.1-2.257,19.156,19.156,0,0,0-6.3,3.905A17.438,17.438,0,0,0,40.069-141.3a17.443,17.443,0,0,0,13.387-6.258,19.4,19.4,0,0,0-6.163-3.775A12.272,12.272,0,0,1,40.2-149.078Z" transform="translate(-26.792 171.751)" fill="#de8933"/>
      </g>
      <g id="Group_503" data-name="Group 503" transform="translate(136.65 356.122)">
        <path id="Path_1654-2" data-name="Path 1654" d="M40.937-180.377a7.506,7.506,0,0,0,7.507-7.507,7.506,7.506,0,0,0-7.507-7.507,7.507,7.507,0,0,0-7.507,7.507A7.507,7.507,0,0,0,40.937-180.377Z" transform="translate(-31.195 195.391)" fill="#de8933"/>
        <path id="Path_1655-2" data-name="Path 1655" d="M36.535-149.695a8.919,8.919,0,0,1-5.161-1.64,13.92,13.92,0,0,0-4.581,2.838,12.672,12.672,0,0,0,9.649,4.456,12.675,12.675,0,0,0,9.728-4.547,14.1,14.1,0,0,0-4.478-2.743A8.918,8.918,0,0,1,36.535-149.695Z" transform="translate(-26.792 166.171)" fill="#de8933"/>
      </g>
      <g id="Group_505" data-name="Group 505" transform="translate(63.031 278.972)">
        <path id="Path_1654-3" data-name="Path 1654" d="M40.937-180.377a7.506,7.506,0,0,0,7.507-7.507,7.506,7.506,0,0,0-7.507-7.507,7.507,7.507,0,0,0-7.507,7.507A7.507,7.507,0,0,0,40.937-180.377Z" transform="translate(-31.195 195.391)" fill="#de8933"/>
        <path id="Path_1655-3" data-name="Path 1655" d="M36.535-149.695a8.919,8.919,0,0,1-5.161-1.64,13.92,13.92,0,0,0-4.581,2.838,12.672,12.672,0,0,0,9.649,4.456,12.675,12.675,0,0,0,9.728-4.547,14.1,14.1,0,0,0-4.478-2.743A8.918,8.918,0,0,1,36.535-149.695Z" transform="translate(-26.792 166.171)" fill="#de8933"/>
      </g>
      <g id="Group_507" data-name="Group 507" transform="translate(0 108.757)">
        <path id="Path_1654-4" data-name="Path 1654" d="M42.231-177.789a8.8,8.8,0,0,0,8.8-8.8,8.8,8.8,0,0,0-8.8-8.8,8.8,8.8,0,0,0-8.8,8.8A8.8,8.8,0,0,0,42.231-177.789Z" transform="translate(-30.809 195.391)" fill="#de8933"/>
        <path id="Path_1655-4" data-name="Path 1655" d="M38.214-149.412a10.456,10.456,0,0,1-6.051-1.923,16.321,16.321,0,0,0-5.371,3.327A14.856,14.856,0,0,0,38.1-142.784a14.86,14.86,0,0,0,11.405-5.331,16.529,16.529,0,0,0-5.25-3.216A10.455,10.455,0,0,1,38.214-149.412Z" transform="translate(-26.792 168.728)" fill="#de8933"/>
      </g>
      <g id="Group_506" data-name="Group 506" transform="translate(111.942 130.5)">
        <path id="Path_1654-5" data-name="Path 1654" d="M44.092-174.067a10.661,10.661,0,0,0,10.661-10.662,10.661,10.661,0,0,0-10.661-10.662A10.662,10.662,0,0,0,33.43-184.729,10.662,10.662,0,0,0,44.092-174.067Z" transform="translate(-30.255 195.391)" fill="#de8933"/>
        <path id="Path_1655-5" data-name="Path 1655" d="M40.629-149.005a12.667,12.667,0,0,1-7.33-2.33,19.771,19.771,0,0,0-6.507,4.03,18,18,0,0,0,13.7,6.329,18,18,0,0,0,13.817-6.459,20.024,20.024,0,0,0-6.361-3.9A12.666,12.666,0,0,1,40.629-149.005Z" transform="translate(-26.792 172.406)" fill="#de8933"/>
      </g>
      <g id="Group_508" data-name="Group 508" transform="translate(203.715 54.458)">
        <path id="Path_1654-6" data-name="Path 1654" d="M40.809-180.634a7.378,7.378,0,0,0,7.378-7.379,7.378,7.378,0,0,0-7.378-7.378,7.379,7.379,0,0,0-7.379,7.378A7.379,7.379,0,0,0,40.809-180.634Z" transform="translate(-31.233 195.391)" fill="#de8933"/>
        <path id="Path_1655-6" data-name="Path 1655" d="M36.368-149.723a8.766,8.766,0,0,1-5.073-1.612,13.683,13.683,0,0,0-4.5,2.789,12.455,12.455,0,0,0,9.483,4.38,12.458,12.458,0,0,0,9.562-4.47,13.858,13.858,0,0,0-4.4-2.7A8.765,8.765,0,0,1,36.368-149.723Z" transform="translate(-26.792 165.917)" fill="#de8933"/>
      </g>
      <g id="Group_513" data-name="Group 513" transform="translate(404.404 0)">
        <path id="Path_1654-7" data-name="Path 1654" d="M40.809-180.634a7.378,7.378,0,0,0,7.378-7.379,7.378,7.378,0,0,0-7.378-7.378,7.379,7.379,0,0,0-7.379,7.378A7.379,7.379,0,0,0,40.809-180.634Z" transform="translate(-31.233 195.391)" fill="#de8933"/>
        <path id="Path_1655-7" data-name="Path 1655" d="M36.368-149.723a8.766,8.766,0,0,1-5.073-1.612,13.683,13.683,0,0,0-4.5,2.789,12.455,12.455,0,0,0,9.483,4.38,12.458,12.458,0,0,0,9.562-4.47,13.858,13.858,0,0,0-4.4-2.7A8.765,8.765,0,0,1,36.368-149.723Z" transform="translate(-26.792 165.917)" fill="#de8933"/>
      </g>
      <g id="Group_504" data-name="Group 504" transform="translate(234.978 366.178)">
        <path id="Path_1654-8" data-name="Path 1654" d="M44.026-174.2a10.6,10.6,0,0,0,10.595-10.6,10.6,10.6,0,0,0-10.595-10.6,10.6,10.6,0,0,0-10.6,10.6A10.6,10.6,0,0,0,44.026-174.2Z" transform="translate(-30.275 195.391)" fill="#de8933"/>
        <path id="Path_1655-8" data-name="Path 1655" d="M40.543-149.02a12.588,12.588,0,0,1-7.284-2.315,19.648,19.648,0,0,0-6.466,4.005,17.885,17.885,0,0,0,13.618,6.29,17.89,17.89,0,0,0,13.731-6.418,19.9,19.9,0,0,0-6.321-3.872A12.587,12.587,0,0,1,40.543-149.02Z" transform="translate(-26.792 172.275)" fill="#de8933"/>
      </g>
      <g id="Group_509" data-name="Group 509" transform="translate(330.784 248.167)">
        <path id="Path_1654-9" data-name="Path 1654" d="M45.058-172.135a11.627,11.627,0,0,0,11.627-11.628,11.627,11.627,0,0,0-11.627-11.628A11.628,11.628,0,0,0,33.43-183.763,11.628,11.628,0,0,0,45.058-172.135Z" transform="translate(-29.968 195.391)" fill="#de8933"/>
        <path id="Path_1655-9" data-name="Path 1655" d="M41.883-148.794a13.815,13.815,0,0,1-7.994-2.541,21.562,21.562,0,0,0-7.1,4.4,19.628,19.628,0,0,0,14.945,6.9,19.633,19.633,0,0,0,15.069-7.044,21.839,21.839,0,0,0-6.937-4.249A13.813,13.813,0,0,1,41.883-148.794Z" transform="translate(-26.792 174.315)" fill="#de8933"/>
      </g>
      <g id="Group_512" data-name="Group 512" transform="translate(343.895 118.661)">
        <path id="Path_1654-10" data-name="Path 1654" d="M49.819-162.614A16.387,16.387,0,0,0,66.207-179a16.387,16.387,0,0,0-16.388-16.388A16.389,16.389,0,0,0,33.43-179,16.389,16.389,0,0,0,49.819-162.614Z" transform="translate(-28.55 195.391)" fill="#de8933"/>
        <path id="Path_1655-10" data-name="Path 1655" d="M48.061-147.754a19.471,19.471,0,0,1-11.267-3.581,30.391,30.391,0,0,0-10,6.2,27.664,27.664,0,0,0,21.064,9.728,27.672,27.672,0,0,0,21.238-9.928,30.781,30.781,0,0,0-9.777-5.989A19.469,19.469,0,0,1,48.061-147.754Z" transform="translate(-26.792 183.724)" fill="#de8933"/>
      </g>
      <g id="Group_511" data-name="Group 511" transform="translate(370.47 422.539)">
        <path id="Path_1654-11" data-name="Path 1654" d="M49.891-162.47A16.459,16.459,0,0,0,66.35-178.931a16.459,16.459,0,0,0-16.459-16.46,16.461,16.461,0,0,0-16.461,16.46A16.461,16.461,0,0,0,49.891-162.47Z" transform="translate(-28.529 195.391)" fill="#de8933"/>
        <path id="Path_1655-11" data-name="Path 1655" d="M48.154-147.738a19.556,19.556,0,0,1-11.316-3.6,30.523,30.523,0,0,0-10.046,6.222,27.785,27.785,0,0,0,21.156,9.771,27.793,27.793,0,0,0,21.331-9.971,30.915,30.915,0,0,0-9.82-6.015A19.554,19.554,0,0,1,48.154-147.738Z" transform="translate(-26.792 183.865)" fill="#de8933"/>
      </g>
      <g id="Group_510" data-name="Group 510" transform="translate(394.824 335.356)">
        <path id="Path_1654-12" data-name="Path 1654" d="M40.455-181.341a7.025,7.025,0,0,0,7.025-7.025,7.024,7.024,0,0,0-7.025-7.025,7.025,7.025,0,0,0-7.025,7.025A7.025,7.025,0,0,0,40.455-181.341Z" transform="translate(-31.338 195.391)" fill="#de8933"/>
        <path id="Path_1655-12" data-name="Path 1655" d="M35.909-149.8a8.346,8.346,0,0,1-4.83-1.535,13.027,13.027,0,0,0-4.287,2.656,11.858,11.858,0,0,0,9.029,4.17,11.862,11.862,0,0,0,9.1-4.256,13.194,13.194,0,0,0-4.191-2.567A8.346,8.346,0,0,1,35.909-149.8Z" transform="translate(-26.792 165.219)" fill="#de8933"/>
      </g>
    </g>
    <g id="Group_133" data-name="Group 133" transform="translate(691.772 519.248)">
      <g id="Group_255" data-name="Group 255" transform="translate(20.958 13.478)">
        <path id="Path_49-2" data-name="Path 49-2" d="M1122.293,501.329a4.749,4.749,0,0,0,2.3,2.752c.112.056.112.169-.224.112a3.541,3.541,0,0,1-1.122-.337,3.835,3.835,0,0,1-2.135-2.247,7.224,7.224,0,0,1-.618-3.089s-.282-.225-.507-.449h3.258A3.552,3.552,0,0,0,1122.293,501.329Z" transform="translate(-1119.99 -498.071)" fill="#454545"/>
      </g>
      <g id="Group_256" data-name="Group 256" transform="translate(0 0)">
        <path id="Path_50-2" data-name="Path 50-2" d="M743.669,270.781a3.1,3.1,0,0,0,.225-2.359c-.337-1.573-2.528-2.7-2.528-2.7l-1.4-.841s-.562-.674-.112-1.236a6.637,6.637,0,0,1,1.911-1.179s.112-2.809.225-3.876a3.221,3.221,0,0,1,.225-.786c.169-1.236-.618-1.8-1.067-2.359a.838.838,0,0,1-.112-1.122c.337-.281,1.067-.281,1.236.169.169.618,1.067,1.011,1.854,1.292.45-.281.786-.45.786-.45l1.516-.618h.9l.729-1.238h.505l.618.955h8.538l3.37.9H786.3s.786-1.292.955-1.517a.747.747,0,0,1,1.18,0,15.067,15.067,0,0,1,1.348,1.517h1.573v.842h1.516v6.854h-1.516v.955h-1.966v.843h-3.651v.449H772.373s-2.809,1.122-2.809,3.089-.169,3.82-.169,3.82-1.629,2.359-6.291,2.3a20.718,20.718,0,0,1-6.627-.9l-2.809,9.1a5.7,5.7,0,0,0,0,2.078c.112.337.225.73.337,1.122.225.674-1.067,1.236-1.067,1.236H741.872s-2.078-.615-2.078-3.48a19.331,19.331,0,0,1,.9-5.5Zm13.931.393c.169.843,1.741,2.472,5.729,2.472s5.112-1.685,5.112-1.685v-3.427a3.857,3.857,0,0,0-3.6-2.022h-5.28c-.281.169-1.067.394-1.292.674a2.877,2.877,0,0,0-.674,1.349A8.216,8.216,0,0,0,757.6,271.174Z" transform="translate(-739.675 -253.48)" fill="#454545"/>
      </g>
    </g>
  </g>
</svg>
